<?xml version="1.0" standalone="no"?>
<!DOCTYPE svg PUBLIC "-//W3C//DTD SVG 20010904//EN"
 "http://www.w3.org/TR/2001/REC-SVG-20010904/DTD/svg10.dtd">
<svg version="1.0" xmlns="http://www.w3.org/2000/svg"
 width="494.000000pt" height="505.000000pt" viewBox="0 0 494.000000 505.000000"
 preserveAspectRatio="xMidYMid meet">
<metadata>

</metadata>
<g transform="translate(0.000000,505.000000) scale(0.100000,-0.100000)"
fill="#d72323" stroke="none">
<path d="M2400 4840 c-170 -20 -271 -43 -440 -99 -267 -89 -382 -142 -534
-243 -147 -98 -331 -254 -476 -404 -97 -100 -103 -109 -80 -112 14 -2 37 -18
52 -35 l27 -32 68 66 c226 219 415 340 721 464 175 70 297 109 377 119 l50 6
-65 -20 c-158 -46 -521 -202 -506 -217 3 -3 11 -1 18 4 32 26 272 116 382 143
202 49 416 75 416 50 0 -6 -21 -20 -47 -31 -26 -11 -50 -24 -53 -28 -3 -5 -14
-11 -25 -14 -11 -4 10 -4 48 -1 37 3 67 3 67 1 0 -3 -39 -10 -87 -17 -103 -14
-262 -48 -283 -62 -12 -7 -10 -8 5 -4 11 3 72 14 135 26 444 78 891 17 1263
-172 117 -60 291 -168 298 -185 8 -19 191 -185 197 -179 3 4 -21 32 -53 62
-33 30 -53 52 -45 48 24 -13 240 -218 240 -229 0 -6 16 -35 36 -65 l36 -55
-35 40 c-59 68 -48 35 20 -59 35 -50 82 -121 104 -158 41 -70 62 -93 33 -35
-9 17 -32 58 -51 90 -19 32 -33 60 -31 63 6 5 72 -91 94 -138 10 -21 20 -38
23 -38 11 0 4 155 -9 200 -11 38 -10 53 3 97 13 43 13 54 2 70 -13 17 -14 17
-20 -2 -26 -77 -43 -97 -63 -72 -14 18 -34 118 -30 151 3 29 6 30 100 51 53
12 104 28 113 35 11 9 35 11 88 6 l72 -6 -35 30 c-19 16 -43 30 -55 30 -46 0
-66 14 -96 66 -29 52 -176 205 -239 248 -16 12 -30 24 -30 29 0 10 22 9 40 -2
8 -6 18 -7 23 -4 17 10 -18 34 -82 53 -36 11 -185 80 -331 154 -318 159 -477
216 -770 276 -115 24 -117 24 -274 39 -121 12 -208 12 -306 1z"/>
<path d="M185 3988 c-6 -15 4 -37 48 -105 30 -47 41 -52 56 -25 12 21 23 10
41 -38 24 -64 18 -766 -7 -925 -7 -44 -12 -52 -43 -67 -19 -9 -57 -23 -84 -30
-52 -14 -61 -24 -47 -46 13 -21 509 -19 550 3 38 19 56 19 85 0 21 -14 27 -13
77 9 30 13 90 34 134 47 l80 23 70 143 c58 122 67 147 57 163 -10 16 -8 20 9
25 67 21 77 148 29 365 -39 177 -67 257 -93 275 -12 7 -60 28 -107 46 -59 22
-96 43 -121 69 l-35 37 -170 6 c-94 4 -206 11 -250 16 -176 21 -273 24 -279 9z
m626 -98 c41 -11 83 -52 99 -95 6 -16 20 -72 31 -124 13 -63 31 -116 55 -158
20 -36 37 -83 41 -111 5 -43 3 -50 -15 -54 -16 -5 -22 -17 -27 -64 -31 -265
-111 -394 -242 -394 -83 0 -89 8 -122 138 -37 146 -42 254 -27 547 8 149 17
277 21 286 14 36 108 50 186 29z"/>
<path d="M745 3839 c-31 -58 -93 -275 -82 -285 2 -3 43 49 90 114 47 65 93
124 101 132 24 19 19 38 -14 55 -47 24 -77 19 -95 -16z"/>
<path d="M4395 3897 c-12 -8 -60 -23 -108 -32 -86 -17 -87 -18 -87 -47 0 -39
20 -118 31 -118 4 0 14 21 21 48 10 35 18 47 33 47 30 0 41 -54 25 -119 -10
-41 -10 -62 -1 -86 13 -40 15 -320 2 -320 -17 0 -88 91 -157 203 -38 61 -86
133 -106 159 -36 45 -37 48 -18 58 13 7 20 21 20 40 0 36 -48 75 -159 128 -71
34 -74 35 -105 19 -31 -16 -216 -47 -281 -47 -27 0 -35 -4 -35 -18 0 -13 22
-29 69 -52 39 -18 82 -43 97 -55 l27 -22 2 -299 c1 -164 -3 -317 -8 -339 -12
-53 -53 -102 -126 -150 -97 -64 -90 -68 122 -60 170 6 183 8 199 28 17 22 16
22 -20 27 -51 8 -87 34 -108 78 -16 34 -16 51 -5 212 11 162 26 314 37 368 2
12 10 22 17 22 13 0 126 -95 170 -144 70 -76 141 -171 220 -291 47 -71 100
-150 117 -174 17 -24 37 -65 43 -92 12 -52 28 -61 66 -37 15 9 26 9 47 0 37
-17 39 -10 9 33 -47 70 -55 120 -55 349 0 174 25 623 35 634 6 7 85 -19 85
-28 0 -12 -17 -12 -45 -1 -19 8 -21 1 -37 -148 -11 -102 -17 -246 -17 -418 -1
-241 1 -267 19 -317 12 -30 30 -66 41 -80 27 -34 18 -60 -16 -52 -23 6 -25 4
-25 -28 0 -47 -23 -53 -43 -10 -14 28 -22 34 -47 34 -18 0 -30 -5 -30 -13 0
-7 -6 -22 -14 -32 -12 -16 -16 -17 -30 -6 -14 12 -16 10 -16 -17 0 -28 4 -32
43 -42 168 -41 261 -165 244 -328 -9 -86 -82 -192 -173 -249 -24 -15 -44 -31
-44 -35 0 -10 71 -128 81 -134 16 -10 9 -35 -11 -42 -20 -7 -19 -10 16 -55 30
-38 39 -45 54 -37 32 17 38 12 80 -60 43 -73 66 -94 120 -110 31 -9 32 -9 56
47 66 148 158 469 190 658 32 195 25 757 -11 815 -4 6 -14 43 -21 80 -14 66
-52 170 -107 290 -13 30 -30 70 -37 88 -7 17 -17 32 -22 32 -5 0 -7 -14 -3
-32 l6 -33 -26 30 c-14 17 -42 58 -62 93 -19 35 -46 76 -60 92 -23 28 -23 30
-7 55 24 37 20 40 -86 51 -40 4 -60 2 -75 -9z"/>
<path d="M1822 3546 l-24 -44 -256 5 -257 4 35 -30 c95 -81 93 -78 85 -124 -4
-23 -10 -139 -13 -257 l-7 -215 -30 -13 c-111 -49 -74 -68 130 -66 125 2 379
25 390 36 4 3 8 37 9 75 2 37 7 92 11 121 6 37 4 52 -4 52 -6 0 -11 -15 -11
-34 0 -53 -14 -80 -71 -138 -42 -42 -53 -49 -57 -35 -2 10 8 38 23 62 14 25
23 45 19 45 -4 0 -32 -27 -61 -60 -44 -48 -61 -60 -85 -60 -45 0 -88 50 -88
102 0 32 -3 39 -15 34 -12 -4 -15 6 -15 58 l0 63 41 12 c60 18 87 -5 116 -95
26 -84 32 -45 7 45 -18 63 -14 94 10 85 11 -4 15 8 20 53 7 70 -4 127 -26 131
-13 2 -16 -10 -20 -69 -5 -84 -14 -95 -95 -105 -58 -7 -72 -2 -55 19 6 7 18
40 27 72 8 32 24 69 36 81 16 17 20 30 15 48 l-6 26 74 0 c73 0 74 0 86 -30 9
-23 17 -29 31 -25 15 5 18 -1 21 -37 l4 -43 8 33 c5 18 19 42 32 55 21 19 24
31 24 99 0 120 -18 140 -58 64z"/>
<path d="M2080 3515 c0 -24 -2 -25 -76 -25 -67 0 -75 -2 -64 -15 8 -10 31 -15
71 -15 84 0 83 1 87 -276 4 -270 2 -281 -73 -310 -32 -12 -44 -21 -40 -31 3
-8 5 -17 5 -19 0 -2 59 -4 130 -4 72 0 130 3 130 8 0 4 -13 14 -29 23 -15 9
-38 36 -49 61 -20 41 -22 60 -22 244 1 139 4 194 11 182 5 -10 39 -88 74 -174
35 -86 67 -159 69 -162 3 -3 14 2 25 12 17 16 19 16 26 -1 4 -10 8 -55 9 -100
2 -93 16 -123 42 -88 32 41 72 134 103 235 55 181 85 254 103 258 23 4 42 -67
35 -133 -3 -33 -1 -55 8 -65 10 -12 11 -28 3 -73 -7 -40 -7 -71 0 -100 6 -23
10 -42 9 -43 -1 -1 -29 -13 -61 -26 -62 -25 -78 -41 -51 -52 9 -3 83 -1 166 6
146 11 149 12 149 34 0 21 -3 23 -27 13 -37 -14 -53 -5 -53 31 0 16 -5 30 -11
30 -8 0 -10 57 -7 198 6 245 17 288 80 317 23 11 44 26 46 34 4 11 -12 12 -89
5 -117 -10 -138 -10 -221 0 -76 8 -89 -3 -37 -30 29 -15 31 -18 26 -57 -12
-83 -107 -347 -125 -347 -12 0 -87 162 -100 215 -6 22 -13 66 -17 97 -11 95
-63 151 -105 113 -16 -15 -21 -14 -76 20 -33 19 -62 35 -66 35 -5 0 -8 -11 -8
-25z"/>
<path d="M3115 3512 c-185 -81 -245 -179 -245 -396 0 -68 3 -86 19 -100 10 -9
24 -38 31 -63 11 -37 20 -48 47 -59 46 -20 271 -74 305 -74 31 0 125 52 183
103 22 19 54 59 70 88 28 50 30 62 29 149 0 86 -3 101 -32 162 -57 118 -174
198 -301 205 -48 2 -77 -2 -106 -15z m169 -53 c51 -40 91 -156 103 -295 4 -52
1 -71 -27 -137 -49 -119 -58 -127 -140 -127 -97 0 -115 9 -134 67 -25 76 -38
240 -26 318 13 80 43 148 78 175 35 28 110 27 146 -1z"/>
<path d="M3605 2706 c30 -26 82 -46 121 -46 12 0 27 -6 33 -14 18 -22 29 -156
41 -513 9 -264 9 -350 -1 -421 l-13 -90 -45 -6 c-49 -7 -122 -43 -129 -63 -5
-18 160 -17 264 1 45 8 125 18 178 22 66 5 96 11 96 19 0 19 -23 34 -61 41
-19 4 -44 13 -57 21 -22 14 -22 15 -20 211 l3 197 34 0 c32 0 36 -4 70 -70 20
-38 68 -148 106 -245 l70 -175 106 -5 c109 -5 132 -14 144 -51 9 -28 81 -27
90 1 6 18 15 20 85 20 43 0 81 4 84 8 3 5 2 18 -1 30 -6 25 -53 41 -131 46
-65 3 -99 29 -146 110 -38 65 -49 75 -61 56 -13 -21 -33 -7 -83 58 -52 69 -65
99 -37 88 54 -22 51 -22 34 4 -48 74 -79 129 -79 141 0 8 19 26 43 41 57 36
120 104 149 158 31 61 32 185 0 246 -51 100 -131 138 -368 173 -72 11 -138 21
-145 23 -8 2 -15 -7 -17 -19 -5 -35 -41 -37 -126 -8 -52 18 -106 28 -169 31
l-92 5 30 -25z m579 -121 c38 -8 78 -21 90 -28 13 -9 32 -46 49 -97 25 -72 27
-92 21 -149 -8 -80 -32 -107 -119 -140 -75 -28 -181 -27 -214 3 -31 29 -28 90
9 159 34 64 38 112 15 197 -8 30 -15 58 -15 63 0 12 90 8 164 -8z"/>
<path d="M817 2617 c-8 -13 -29 -54 -46 -91 -26 -57 -34 -67 -48 -60 -109 47
-295 90 -351 79 -136 -25 -233 -149 -234 -300 -1 -40 5 -89 12 -107 36 -87
130 -167 305 -259 226 -118 284 -205 199 -299 -29 -32 -43 -40 -72 -40 -61 0
-115 22 -161 64 l-44 41 8 -30 c3 -16 13 -37 21 -46 13 -14 13 -18 -1 -29 -12
-10 -24 -11 -55 -1 -56 17 -100 85 -145 226 -24 78 -67 147 -103 168 -53 31
-64 19 -56 -60 8 -90 29 -155 59 -183 20 -19 24 -30 20 -59 -2 -20 -7 -56 -9
-81 -2 -25 -8 -68 -11 -95 -6 -40 -4 -54 9 -64 22 -19 31 -9 57 64 14 40 29
66 38 67 35 3 66 -4 74 -17 12 -21 114 -57 202 -70 52 -8 67 -13 43 -14 -21 0
-38 -4 -38 -7 0 -3 13 -22 29 -42 36 -46 51 -98 51 -182 0 -78 14 -108 29 -67
6 16 11 33 11 39 0 17 49 -32 67 -66 8 -15 33 -48 55 -72 23 -25 35 -44 27
-44 -8 0 -20 -4 -28 -9 -10 -6 -3 -19 30 -52 24 -24 57 -70 72 -102 31 -64 47
-66 47 -6 0 44 13 51 31 17 7 -13 31 -52 53 -88 23 -36 47 -77 54 -92 7 -18
17 -26 26 -22 14 6 59 -20 154 -89 43 -31 53 -44 50 -62 -4 -20 0 -24 33 -29
48 -8 58 -23 24 -36 -35 -13 -24 -26 38 -45 117 -34 197 -73 197 -97 0 -4 -30
-8 -67 -8 l-68 -1 29 -16 c40 -21 131 -42 184 -43 40 0 48 5 97 55 52 55 53
55 113 55 60 0 90 -13 52 -23 -20 -5 -28 -27 -11 -27 6 0 39 7 75 15 l66 15
41 -27 40 -26 50 17 c45 16 73 18 277 11 224 -6 228 -6 314 19 74 22 106 26
200 24 62 -1 131 4 153 10 22 7 59 16 83 22 40 10 58 30 27 30 -8 0 -15 4 -15
9 0 4 28 11 63 14 34 4 125 20 202 38 190 43 212 47 307 59 45 5 86 14 92 20
7 7 4 10 -7 10 -9 0 -17 1 -17 3 0 8 110 117 140 140 19 14 62 33 95 42 84 25
123 47 174 99 49 50 50 71 1 36 -40 -29 -48 -21 -16 17 14 16 45 70 70 119 41
81 79 129 143 181 22 18 183 292 183 312 0 6 -18 11 -40 11 -27 0 -40 4 -40
14 0 8 -8 23 -17 35 -16 19 -29 22 -113 23 -69 0 -100 5 -112 16 -10 8 -32 52
-49 98 -17 46 -33 84 -36 84 -8 0 -63 -44 -63 -51 0 -4 10 -9 23 -13 l22 -6
-22 -15 c-21 -15 -21 -17 -6 -43 27 -47 13 -62 -57 -62 l-61 0 -74 -70 c-60
-57 -79 -69 -98 -65 -19 5 -25 1 -35 -28 -18 -49 -65 -111 -172 -226 -79 -85
-96 -99 -106 -87 -9 13 -15 11 -40 -15 -16 -17 -68 -58 -116 -90 -48 -33 -95
-70 -104 -84 -9 -14 -20 -23 -24 -20 -4 2 -35 -25 -69 -60 -34 -36 -68 -65
-76 -65 -8 0 -24 9 -36 21 -19 19 -25 20 -48 9 -71 -33 -174 -61 -246 -67 -73
-6 -82 -9 -110 -39 -49 -51 -89 -57 -355 -51 -203 4 -252 9 -360 31 -165 35
-337 94 -485 166 -109 53 -484 293 -640 410 -112 83 -235 191 -235 206 0 25
49 37 76 19 13 -8 25 -15 27 -15 2 0 42 43 87 97 70 80 85 104 91 141 9 66 -6
182 -32 235 -19 39 -28 47 -51 47 -20 0 -41 15 -84 59 -39 41 -66 60 -89 64
-46 8 -172 81 -223 130 -53 51 -102 119 -102 142 0 16 60 98 90 122 22 18 99
15 145 -6 66 -30 105 -70 182 -188 40 -62 79 -113 87 -113 19 0 24 15 52 164
26 139 32 274 12 294 -19 19 -44 14 -61 -11z"/>
<path d="M1996 2578 c5 -34 -1 -60 -25 -120 -22 -57 -28 -83 -22 -100 6 -16 3
-34 -9 -58 -9 -19 -25 -64 -34 -100 -25 -90 -37 -107 -88 -115 -57 -10 -60
-12 -47 -38 16 -30 15 -30 38 -17 20 10 21 8 21 -26 0 -20 -7 -51 -16 -69 -16
-34 -37 -45 -87 -45 -35 0 -87 -29 -87 -48 0 -14 5 -14 60 4 9 3 25 -3 37 -14
20 -17 28 -17 110 -6 48 7 89 13 91 13 1 1 2 10 2 21 0 13 -12 26 -35 37 -24
12 -35 23 -35 38 0 23 19 86 29 97 10 10 147 -17 175 -36 32 -20 32 -29 1
-112 -40 -105 -29 -129 37 -81 l30 22 15 -22 c17 -26 34 -29 62 -11 15 9 28 9
59 0 49 -15 99 -15 108 -1 3 6 -4 21 -17 33 -24 21 -37 43 -89 144 -15 29 -44
68 -64 87 -34 31 -36 35 -30 78 6 40 3 50 -19 76 -39 47 -51 94 -37 146 13 45
8 65 -14 65 -23 0 -44 34 -56 92 -11 54 -41 108 -61 108 -5 0 -6 -19 -3 -42z"/>
<path d="M3598 2564 l-28 -45 -260 7 c-237 6 -260 6 -254 -9 3 -9 25 -28 49
-42 24 -14 48 -31 52 -38 13 -20 3 -540 -10 -554 -7 -7 -30 -18 -52 -25 -51
-17 -58 -43 -13 -52 71 -14 254 -19 290 -7 19 6 89 15 156 20 66 5 124 11 130
15 6 3 8 23 5 44 -3 20 2 73 10 117 9 44 12 84 7 88 -4 5 -11 -11 -15 -35 -4
-23 -13 -54 -20 -68 -15 -29 -94 -110 -107 -110 -15 0 -8 34 12 65 39 58 19
53 -44 -12 -57 -58 -67 -65 -93 -59 -45 11 -83 59 -83 107 0 32 -3 40 -15 35
-12 -4 -15 6 -15 63 l0 69 31 6 c80 16 109 -6 130 -100 12 -54 29 -82 29 -47
0 10 -9 51 -20 92 -20 75 -19 91 5 91 19 0 29 35 28 97 -2 64 -10 93 -27 93
-9 0 -15 -21 -19 -63 -10 -103 -11 -105 -117 -114 -63 -6 -65 -5 -48 13 9 10
23 45 31 78 9 32 25 69 37 81 14 15 21 33 18 52 l-3 28 74 0 c73 0 74 0 91
-33 10 -19 21 -29 25 -23 14 23 24 9 27 -36 l3 -48 14 43 c8 24 23 49 33 56
16 12 18 25 16 107 -4 112 -18 124 -60 53z"/>
<path d="M2329 2571 c13 -23 5 -31 -31 -31 -15 0 -28 -3 -28 -6 0 -20 25 -42
61 -54 33 -11 49 -25 74 -65 74 -117 158 -282 175 -343 11 -42 6 -102 -9 -102
-4 0 -13 -16 -20 -35 -11 -30 -19 -37 -67 -51 -52 -15 -84 -36 -84 -55 0 -5
33 -9 73 -9 39 0 89 -4 109 -9 21 -5 38 -5 40 0 5 16 186 24 213 9 33 -18 43
-6 23 27 -16 27 -44 46 -90 63 l-28 10 0 125 0 125 72 141 c59 114 78 143 103
154 30 14 75 49 75 58 0 11 -55 17 -146 18 -102 0 -134 -12 -134 -53 0 -16 5
-18 34 -13 31 6 34 4 39 -21 5 -30 -68 -194 -91 -202 -7 -2 -10 2 -6 11 4 11
0 14 -14 11 -15 -5 -24 7 -47 58 -35 78 -44 148 -21 167 24 20 19 31 -12 31
-15 0 -33 5 -40 12 -9 9 -15 9 -24 0 -26 -26 -150 1 -172 37 -4 6 -14 11 -22
11 -11 0 -12 -4 -5 -19z"/>
<path d="M1287 2560 c-16 -5 -35 -14 -43 -21 -17 -14 -213 -4 -229 12 -5 5
-24 9 -42 9 -31 0 -33 -2 -23 -20 6 -12 37 -33 68 -48 l57 -27 6 -140 c4 -77
7 -164 8 -193 2 -89 21 -49 21 44 0 49 4 84 10 84 6 0 10 -42 10 -107 0 -85
-4 -120 -21 -163 -27 -72 -41 -86 -104 -105 -54 -15 -84 -38 -66 -49 5 -4 159
-3 341 0 l331 7 13 32 c27 64 30 79 13 72 -14 -5 -17 7 -19 91 l-3 97 -22 -35
c-12 -19 -31 -64 -42 -101 -28 -89 -58 -119 -123 -119 -60 0 -93 16 -140 68
-68 75 -71 119 -22 375 26 135 27 138 58 151 33 14 69 50 79 79 6 15 0 17 -41
16 -26 0 -60 -5 -75 -9z"/>

</g>
</svg>